<?xml version="1.0" encoding="UTF-8" standalone="no"?>
<svg
   xmlns:dc="http://purl.org/dc/elements/1.1/"
   xmlns:cc="http://creativecommons.org/ns#"
   xmlns:rdf="http://www.w3.org/1999/02/22-rdf-syntax-ns#"
   xmlns:svg="http://www.w3.org/2000/svg"
   xmlns="http://www.w3.org/2000/svg"
   xmlns:sodipodi="http://sodipodi.sourceforge.net/DTD/sodipodi-0.dtd"
   xmlns:inkscape="http://www.inkscape.org/namespaces/inkscape"
   width="210mm"
   height="210mm"
   viewBox="0 0 210 210"
   version="1.1"
   id="svg8"
   inkscape:version="1.0.2 (e86c870879, 2021-01-15)"
   sodipodi:docname="scissors.svg">
  <defs
     id="defs2" />
  <sodipodi:namedview
     id="base"
     pagecolor="#ffffff"
     bordercolor="#666666"
     borderopacity="1.0"
     inkscape:pageopacity="0.0"
     inkscape:pageshadow="2"
     inkscape:zoom="0.60395061"
     inkscape:cx="347.27259"
     inkscape:cy="393.01321"
     inkscape:document-units="mm"
     inkscape:current-layer="layer1"
     inkscape:document-rotation="0"
     showgrid="false"
     inkscape:window-width="1364"
     inkscape:window-height="747"
     inkscape:window-x="0"
     inkscape:window-y="19"
     inkscape:window-maximized="0" />
  <metadata
     id="metadata5">
    <rdf:RDF>
      <cc:Work
         rdf:about="">
        <dc:format>image/svg+xml</dc:format>
        <dc:type
           rdf:resource="http://purl.org/dc/dcmitype/StillImage" />
        <dc:title></dc:title>
      </cc:Work>
    </rdf:RDF>
  </metadata>
  <g
     inkscape:label="Layer 1"
     inkscape:groupmode="layer"
     id="layer1">
    <path
       id="path178-8"
       style="fill:#000000;fill-opacity:1;fill-rule:evenodd;stroke:#000000;stroke-width:0.335495px;stroke-linecap:butt;stroke-linejoin:miter;stroke-opacity:1"
       d="m 14.683609,157.32947 c 0,0 -1.834127,-9.4891 6.447102,-15.49962 8.281233,-6.01054 14.817661,-5.11244 18.026452,-4.31698 3.575833,0.88645 6.718893,3.92468 6.718893,3.92468 0,0 3.214298,2.90178 1.267995,13.77959 -2.001278,11.18505 -19.162612,13.48274 -22.287412,12.3606 -2.952882,-1.0604 -8.211926,-2.39385 -10.17303,-10.24827 z M 26.479018,49.911591 c 0,0 -3.849566,8.864991 2.930047,16.52933 6.779614,7.664345 13.355174,8.206064 16.660122,8.125861 3.682985,-0.08938 7.410449,-2.373138 7.410449,-2.373138 0,0 3.767393,-2.135133 4.227958,-13.176084 C 58.181169,47.664746 41.927363,41.6978 38.633518,42.115108 c -3.112627,0.39435 -8.535716,0.554816 -12.1545,7.796483 z M 184.4089,77.211106 c 0,0 14.72048,-3.293574 16.22984,5.238007 v 0 c 0,0 -31.01589,14.607807 -84.39236,30.532687 51.04957,22.64447 78.19354,42.95456 78.19354,42.95456 v 0 c -2.59038,8.26776 -16.76731,3.11471 -16.76731,3.11471 l -66.80204,-29.15236 -12.70399,1.01623 c -10.769299,9.33438 -46.175934,8.9805 -46.175934,8.9805 0,0 4.48682,38.3569 -29.431471,32.04041 -13.525615,-3.59729 -18.1049851,-20.15118 -6.921463,-30.71397 11.183524,-10.56273 34.126013,-9.97226 34.126013,-9.97226 0,0 15.684978,1.31656 27.340787,-2.03442 11.655798,-3.35095 18.220495,-17.47332 20.03665,-17.18773 -1.834848,-0.11539 -5.178557,-15.325708 -15.82946,-21.126146 -10.650902,-5.80044 -26.247825,-7.91889 -26.247825,-7.91889 0,0 -22.523937,-4.402143 -31.148847,-17.140032 -8.624911,-12.737886 -0.562451,-27.903617 13.421477,-28.480104 34.480758,1.194287 21.777372,37.663568 21.777372,37.663568 0,0 34.639742,7.337829 43.126861,18.786722 l 12.18075,3.748782 z" />
  </g>
</svg>
